<?xml version="1.0" encoding="UTF-8" standalone="no"?>
<!DOCTYPE svg PUBLIC "-//W3C//DTD SVG 1.1//EN" "http://www.w3.org/Graphics/SVG/1.1/DTD/svg11.dtd">
<svg xmlns="http://www.w3.org/2000/svg" xmlns:xlink="http://www.w3.org/1999/xlink" version="1.1" width="1190.5512pt" height="269.2913pt" viewBox="0 0 1190.5512 269.2913">
<g enable-background="new">
<path transform="matrix(1,0,0,-1,0,269.2913)" d="M 279.0884 105.609 L 292.3418 108.4836 C 297.7021 93.3009 309.2763 85.7098 327.1241 85.7098 C 336.4308 85.7098 343.4695 87.5798 348.1818 91.3473 C 352.8941 95.1151 355.2503 100.1387 355.2503 106.446 C 355.2503 111.2185 353.4537 115.0699 349.8605 117.9726 C 346.2676 120.875 342.1443 122.8844 337.4323 124.0007 L 313.9004 129.471 C 307.7745 130.9501 302.7677 132.7363 298.8799 134.8296 C 294.9925 136.9505 291.6938 140.188 288.9845 144.5417 C 286.2748 148.9235 284.9202 153.9193 284.9202 159.5568 C 284.9202 168.8786 288.631 176.33 296.0527 181.8839 C 303.4451 187.4378 312.9576 190.2008 324.5913 190.2008 C 345.973 190.2008 360.0213 181.0188 366.7363 162.6548 L 353.3066 158.887 C 351.7455 165.4455 348.1228 170.4135 342.3798 173.7624 C 336.6663 177.1396 330.5699 178.814 324.0904 178.814 C 317.67 178.814 311.9564 177.1954 306.9204 173.958 C 301.9136 170.7205 299.41 166.1434 299.41 160.2266 C 299.41 151.9376 305.801 146.3559 318.5535 143.4535 L 340.5246 138.5135 C 360.5811 133.9087 370.624 123.6101 370.624 107.5904 C 370.624 97.9339 366.8542 89.8682 359.2848 83.4491 C 351.7455 77.0301 341.0838 73.8207 327.3599 73.8207 C 303.0032 73.8207 286.8931 84.426 279.0884 105.609 Z M 405.4649 187.7729 L 405.4649 173.5393 L 390.8866 173.5393 L 390.8866 187.7729 Z M 405.0232 158.7475 L 405.0232 76.1649 L 391.4753 76.1649 L 391.4753 158.7475 Z M 548.7171 76.1649 L 535.2871 76.1649 L 535.2871 127.5174 C 535.2871 132.8202 534.9044 136.7833 534.1388 139.4345 C 533.3434 142.058 531.4881 144.4861 528.5132 146.6909 C 525.5385 148.8957 522.1811 150.012 518.4703 150.012 C 513.3163 150.012 508.3685 147.7514 503.568 143.2579 C 498.7967 138.7647 496.4114 131.8992 496.4114 122.6891 L 496.4114 76.1649 L 483.3346 76.1649 L 483.3346 130.5037 C 483.3346 137.732 481.5088 142.8673 477.8566 145.8536 C 474.2048 148.8399 470.376 150.3468 466.3706 150.3468 C 460.6277 150.3468 455.6211 148.0025 451.3799 143.3137 C 447.1095 138.653 444.9889 132.7085 444.9889 125.536 L 444.9889 76.1649 L 432.0893 76.1649 L 432.0893 158.7195 L 443.7522 158.7195 L 443.7522 142.8673 C 450.2313 155.0078 459.1551 161.064 470.4939 161.064 C 476.7375 161.064 482.0389 159.1104 486.3977 155.2309 C 490.7565 151.3517 493.5546 146.6909 494.8209 141.2206 C 500.7994 154.4494 509.9882 161.064 522.3875 161.064 C 528.3071 161.064 533.4908 159.4451 537.9673 156.2357 C 542.4146 153.0261 545.33 149.3141 546.6849 145.1557 C 548.0396 140.9973 548.7171 135.1086 548.7171 127.5174 Z M 587.8582 48.2839 L 574.3106 48.2839 L 574.3106 158.7475 L 586.4743 158.7475 L 586.4743 142.7278 C 592.6294 154.9239 601.8182 161.0359 614.0112 161.0359 C 624.2899 161.0359 632.5951 156.9614 638.9274 148.8118 C 645.2595 140.6625 648.4399 130.3362 648.4399 117.8609 C 648.4399 104.4088 645.1707 93.7196 638.6916 85.8214 C 632.1827 77.8952 623.848 73.9602 613.6577 73.9602 C 602.7316 73.9602 594.1315 78.9001 587.8582 88.7519 Z M 587.8582 129.3874 L 587.8582 106.1671 C 588.7123 99.9153 591.5103 94.7245 596.2226 90.6497 C 600.935 86.5471 605.8531 84.5096 610.9775 84.5096 C 616.8974 84.5096 622.1398 86.9658 626.7345 91.8777 C 631.2991 96.7618 633.5966 105.2461 633.5966 117.3027 C 633.5966 127.7127 631.5055 135.7226 627.3822 141.3601 C 623.2294 147.0257 617.7515 149.8445 610.8894 149.8445 C 605.4996 149.8445 600.6402 147.835 596.3698 143.8719 C 592.0699 139.881 589.2423 135.0527 587.8582 129.3874 Z M 682.2502 76.1649 L 668.7026 76.1649 L 668.7026 187.7729 L 682.2502 187.7729 Z M 766.8938 100.7807 L 779.4989 98.3245 C 777.202 91.2915 772.6958 85.4864 766.0397 80.8537 C 759.3542 76.2486 751.5204 73.9602 742.4787 73.9602 C 730.58 73.9602 720.9496 77.9233 713.5869 85.8492 C 706.2239 93.7755 702.5426 104.1854 702.5426 117.0516 C 702.5426 130.1967 706.3415 140.802 713.9991 148.8957 C 721.6566 156.9892 731.2578 161.0359 742.8319 161.0359 C 754.2003 161.0359 763.3596 157.2962 770.3101 149.8445 C 777.2312 142.365 780.7949 131.2013 780.9715 116.3259 L 717.6214 116.3259 C 717.6214 103.8226 720.39 95.4221 725.8975 91.0403 C 731.4341 86.6866 737.2658 84.5096 743.421 84.5096 C 754.5243 84.5096 762.3584 89.924 766.8938 100.7807 Z M 766.1282 125.8707 C 766.0103 130.5037 765.186 134.634 763.7134 138.2343 C 762.211 141.8346 759.6782 144.8768 756.1148 147.4163 C 752.5511 149.9562 748.2512 151.24 743.2441 151.24 C 736.5294 151.24 730.8159 148.9235 726.133 144.3464 C 721.4505 139.7693 718.7998 133.6294 718.24 125.8707 Z M 802.5304 76.1649 L 802.5304 187.7729 L 842.0542 187.7729 C 858.6649 187.7729 871.6235 182.4143 880.8712 171.6693 C 890.1485 160.9243 894.7723 147.7791 894.7723 132.262 C 894.7723 116.4934 890.2664 103.2086 881.2244 92.408 C 872.1831 81.5794 860.7557 76.1649 846.8841 76.1649 Z M 817.2853 88.0262 L 841.2001 88.0262 C 853.8347 88.0262 863.4362 92.1569 870.0038 100.4457 C 876.5714 108.7347 879.8406 119.6751 879.8406 133.2388 C 879.8406 144.2347 876.7188 154.1424 870.4749 162.906 C 864.231 171.6973 854.4827 176.0788 841.2001 176.0788 L 817.2853 176.0788 Z M 946.9015 73.9602 C 934.9149 73.9602 925.5787 78.1464 918.8929 86.5471 C 912.1782 94.9476 908.8503 105.3578 908.8503 117.7773 C 908.8503 130.9224 912.5906 141.4159 920.13 149.2586 C 927.6695 157.1009 937.0647 161.0359 948.2562 161.0359 C 960.302 161.0359 969.7558 156.9056 976.7064 148.6446 C 983.6277 140.3833 987.1027 130.085 987.1027 117.6934 C 987.1027 104.8275 983.3624 94.3336 975.8818 86.1843 C 968.4011 78.035 958.7409 73.9602 946.9015 73.9602 Z M 947.9322 84.5096 C 954.8237 84.5096 960.5965 87.2169 965.2791 92.6033 C 969.9324 97.9897 972.2591 106.3902 972.2591 117.7773 C 972.2591 129.2199 969.8148 137.5367 964.9259 142.672 C 960.0369 147.835 954.294 150.4026 947.7556 150.4026 C 941.0111 150.4026 935.3271 147.8072 930.6737 142.5881 C 926.0203 137.3973 923.6642 129.136 923.6642 117.8609 C 923.6642 105.916 926.0203 97.3757 930.6737 92.2405 C 935.3271 87.0772 941.07 84.5096 947.9322 84.5096 Z M 1058.9644 105.1064 L 1071.2163 103.0691 C 1069.4784 93.9708 1065.6795 86.826 1059.73 81.6908 C 1053.8104 76.5278 1046.4182 73.9602 1037.5534 73.9602 C 1025.5368 73.9602 1016.3775 78.1464 1010.075 86.5471 C 1003.7724 94.9476 1000.6506 105.1903 1000.6506 117.3027 C 1000.6506 129.8339 1003.949 140.2438 1010.605 148.5607 C 1017.2319 156.8775 1026.3027 161.0359 1037.7299 161.0359 C 1047.2428 161.0359 1054.8414 158.3566 1060.5549 152.9702 C 1066.2979 147.6119 1069.8322 140.6903 1071.2163 132.1781 L 1058.9644 129.9733 C 1056.6672 143.5929 1049.7166 150.4026 1038.0833 150.4026 C 1030.6026 150.4026 1024.8596 147.3885 1020.8248 141.3601 C 1016.79 135.3597 1014.7873 127.5452 1014.7873 117.9445 C 1014.7873 107.367 1016.79 99.1619 1020.7953 93.3009 C 1024.7713 87.44 1030.3965 84.5096 1037.6416 84.5096 C 1048.8626 84.5096 1055.9605 91.3754 1058.9644 105.1064 Z M 1077.99 97.4035 L 1090.8899 99.9434 C 1093.7761 89.5612 1102.8764 84.3701 1118.1915 84.3701 C 1123.846 84.3701 1128.6173 85.5703 1132.5342 87.9704 C 1136.4514 90.3986 1138.4246 93.7755 1138.4246 98.1573 C 1138.4246 104.688 1133.4472 108.8184 1123.522 110.5767 L 1105.115 113.8419 C 1097.9286 115.1538 1092.1856 117.6934 1087.9152 121.517 C 1083.6448 125.3404 1081.5242 130.392 1081.5242 136.6716 C 1081.5242 143.5929 1084.44 149.398 1090.242 154.0587 C 1096.0733 158.7195 1103.9074 161.064 1113.7737 161.064 C 1132.711 161.064 1144.4031 154.0868 1148.8504 140.1602 L 1136.6575 137.6203 C 1133.0643 146.2164 1125.6718 150.5143 1114.5098 150.5143 C 1108.9434 150.5143 1104.3786 149.4539 1100.8151 147.3049 C 1097.2514 145.1557 1095.4845 142.1416 1095.4845 138.2902 C 1095.4845 132.1781 1100.02 128.3547 1109.0614 126.7917 L 1126.0256 123.7496 C 1143.8436 120.7077 1152.7379 112.5303 1152.7379 99.2458 C 1152.7379 91.6543 1149.4395 85.5145 1142.8129 80.8257 C 1136.1862 76.1649 1127.3508 73.8207 1116.3654 73.8207 C 1095.6906 73.8207 1082.8789 81.6908 1077.99 97.4035 "/>
<path transform="matrix(1,0,0,-1,0,269.2913)" d="M 227.7785 201.2757 C 231.3162 198.5825 235.1645 196.0529 238.6003 193.3092 L 226.0256 191.2612 L 224.0595 203.9006 Z M 132.2538 75.9234 C 132.2178 77.4142 128.6898 101.0313 128.3703 103.2403 L 115.6408 191.5319 C 115.3193 193.7441 114.9489 194.2174 115.7329 194.4159 L 132.9341 196.6272 C 136.9278 197.1374 214.2669 207.2971 215.3387 207.2007 C 216.409 201.7137 217.26 194.8116 218.2065 189.0204 C 219.0609 183.7871 219.4044 181.9896 225.6109 182.9648 C 227.579 183.2746 229.5706 183.6513 231.4868 183.9495 C 233.5082 184.2644 235.4255 184.6253 237.4237 184.9459 C 238.9037 185.1834 242.0212 185.8742 243.3305 185.8518 L 260.3214 59.5553 L 137.2822 41.4026 L 134.7537 59.0142 L 126.8668 57.8364 C 126.7172 56.6683 127.8578 50.1987 128.0957 48.5796 C 128.5444 45.508 128.9676 42.5273 129.4038 39.4376 C 129.8633 36.178 130.2324 33.226 133.4041 32.8195 C 135.3447 32.5712 175.1465 38.8157 179.2018 39.4024 C 206.4362 43.3423 234.267 47.3085 261.4907 51.5718 C 264.9274 52.1099 267.5982 51.9783 268.5733 54.9544 C 269.2131 56.9081 267.0072 70.5087 266.603 73.5273 C 261.6477 110.5002 256.5269 147.4478 251.6695 184.3886 C 250.2743 195.0004 251.5751 193.898 244.9284 198.7279 C 240.8244 201.7106 236.8145 204.7093 232.7539 207.608 L 223.5969 214.2799 C 222.6523 215.0101 221.7472 215.9277 220.1207 215.9819 C 218.1047 216.0499 213.1815 215.1278 210.8832 214.8361 C 207.8167 214.4466 204.7428 214.0517 201.6476 213.6382 C 176.8929 210.3253 152.1414 207.3416 127.3836 204.0534 C 124.6269 203.6874 110.3726 202.0946 108.9317 201.4328 C 105.8494 200.0183 106.664 197.1618 107.1757 193.6953 C 107.6202 190.6852 108.0731 187.6153 108.4935 184.5828 C 110.1869 172.3595 112.0734 160.2218 113.7784 147.9325 C 116.3038 129.7216 119.2516 111.102 121.7089 92.8823 L 124.022 76.8348 C 124.1155 76.1683 124.1461 75.2528 124.4699 74.6586 C 125.9884 74.8134 131.3096 75.3738 132.2538 75.9234 " fill-rule="evenodd"/>
<path transform="matrix(1,0,0,-1,0,269.2913)" d="M 83.0075 113.2931 C 82.8071 112.7625 82.7425 112.9292 82.2342 112.6108 C 81.9592 112.4388 81.6749 112.2202 81.434 112.0771 C 78.6552 110.4293 76.1978 108.182 74.5605 105.4466 C 70.8763 99.29 70.8987 95.099 73.2002 88.4937 C 73.9695 86.2858 75.7043 83.4335 77.2767 81.7877 C 77.8212 81.2191 78.0452 80.8118 78.5129 80.3237 L 81.2738 77.6974 C 81.7004 77.3493 82.2841 76.8189 82.7402 76.4569 L 83.9764 75.6845 C 84.0634 75.6145 84.1323 75.5073 84.2936 75.344 C 85.8365 73.7768 90.5539 71.2579 92.6558 70.2094 C 94.8969 69.0911 98.0218 68.0068 98.3622 67.8328 C 98.9544 67.5303 99.7174 67.2151 100.2606 67.0496 L 104.5335 65.7635 C 106.018 65.3499 107.4577 65.0483 108.94 64.7408 C 112.1805 64.0689 115.266 63.9575 118.6818 63.6106 C 124.8454 62.9858 132.916 63.8271 138.1958 65.5534 C 139.6091 66.0161 140.9207 66.3089 142.2162 66.937 C 143.4078 67.5145 144.8955 68.0746 145.8346 68.7175 C 148.0119 70.2085 150.0491 71.5728 151.8517 73.47 C 152.3866 74.0336 153.7744 75.7823 154.1903 76.5431 C 154.9043 77.8501 155.3247 78.9378 155.8052 80.3171 C 156.619 82.6557 156.6213 87.7394 155.1441 89.4146 C 153.8847 90.8419 152.375 90.65 151.9081 88.7029 C 151.6853 87.7742 151.7786 87.2311 151.6311 86.3005 C 151.507 85.5133 151.3179 84.7196 151.2204 83.9886 C 150.4862 78.5208 145.9298 74.876 141.3907 72.3379 C 137.6663 70.2541 133.1844 69.1313 129.0229 68.6296 C 128.3151 68.5446 127.5216 68.3473 126.6661 68.3388 C 122.3529 68.2931 118.1194 68.1384 113.836 68.9426 C 112.9297 69.1123 112.5329 69.2504 111.5906 69.3989 L 105.2666 71.0773 C 101.3173 72.3146 97.5495 73.8584 94.0025 75.9444 C 91.8125 77.2328 89.5734 78.6427 87.603 80.333 C 85.2443 82.3567 81.1454 87.0551 79.9676 90.1278 C 79.0532 92.5121 78.446 95.485 78.9789 98.0413 C 79.763 101.8049 80.6859 102.7057 82.6767 105.1027 L 85.6519 107.5017 C 91.1928 111.4722 97.9123 111.0169 97.2439 114.7997 C 96.8471 117.0428 93.3744 117.0289 91.5154 117.3251 C 88.4404 117.8152 84.8869 117.9649 81.8011 118.5633 C 80.2457 118.8658 79.1561 119.3346 77.4805 119.5767 C 74.7439 119.9713 71.7741 121.1204 69.1373 122.0236 C 67.1584 122.7005 65.2442 123.7224 63.3577 124.3706 C 62.5907 124.6337 62.2692 124.8968 61.5954 125.2363 C 55.7308 128.1872 50.4317 131.817 45.6528 136.23 L 42.6246 139.4527 C 42.5959 139.477 42.5546 139.5068 42.5248 139.5312 L 42.3241 139.6712 C 41.868 140.0267 39.9538 142.8279 39.4838 143.5068 L 36.5097 148.6106 L 35.0178 152.6309 C 34.5444 154.0879 34.518 155.6677 34.1592 157.2318 C 33.5058 160.0849 34.2167 164.1733 35.0433 166.5808 L 38.95 173.3919 C 39.8614 174.4455 40.6341 175.2934 41.5474 176.1676 C 41.7044 176.3172 41.7597 176.3586 41.9009 176.472 L 44.6204 178.4988 C 46.5197 179.9408 49.5587 181.2183 51.7326 182.1362 C 53.5768 182.9149 58.0876 184.2083 60.1299 184.4334 C 63.538 184.809 66.2873 185.3756 70.0668 185.3393 L 77.8221 184.983 C 79.2652 184.8725 83.4066 184.0056 84.6714 183.7001 C 85.428 183.5175 86.2597 183.4486 86.9706 183.2715 C 88.018 183.0104 87.9948 182.9435 89.2732 182.9543 C 91.1557 182.969 92.0129 183.5249 92.9466 184.5819 C 94.4385 186.2722 93.6598 186.6277 92.9582 188.2701 C 92.5106 189.3163 91.9003 189.7534 91.3414 190.6427 C 90.4541 192.0572 89.4217 193.0354 88.382 194.4337 C 87.2328 195.9778 87.6274 195.2881 86.7648 196.8372 C 86.5993 197.1363 86.4434 197.2945 86.2396 197.6638 C 83.4205 202.775 81.6049 209.1869 82.6109 215.1714 C 83.2156 218.7683 83.1169 217.2733 83.6719 219.4294 C 84.2576 221.7022 85.9912 225.0882 87.2223 226.6829 L 89.9841 230.1664 C 90.8351 231.0925 94.1817 233.7633 95.368 234.6738 L 100.6203 237.4537 C 108.5601 240.7017 117.7299 241.683 126.1687 239.5908 C 129.2139 238.8353 131.5355 237.943 134.2157 236.8638 C 137.3587 235.599 142.4018 232.2459 144.6727 229.8373 L 146.5974 227.7312 C 148.2038 225.834 150.2155 223.7406 151.0135 221.3541 C 151.9461 221.2724 159.1211 222.7082 159.7799 222.9968 C 159.8448 223.1623 159.8542 223.0169 159.8618 223.4435 C 159.8712 223.9313 158.8209 226.0877 158.2106 226.878 L 156.5447 229.2188 C 156.0484 230.1026 155.3831 230.7436 154.6826 231.5914 L 149.8102 236.3533 C 149.5568 236.5421 149.3096 236.7323 149.0706 236.9285 C 146.8361 238.7693 143.3356 241.2026 140.6871 242.2412 C 139.4722 242.7177 138.2542 243.4433 136.9715 243.9028 L 135.3319 244.4505 C 134.24 244.9638 132.8204 245.2357 131.6194 245.5243 C 131.1004 245.6484 131.334 245.6864 130.7588 245.9115 C 130.1168 246.1629 129.1949 246.2553 128.505 246.4112 C 116.3982 249.1447 103.17 247.2761 92.3165 241.3106 C 90.1539 240.1223 87.6764 238.5275 85.7962 236.8553 C 84.6714 235.8536 83.8491 235.1957 82.9375 234.1582 L 81.7101 232.6842 C 81.4711 232.3998 81.3226 232.3987 80.9991 232.0603 C 79.6005 230.5981 77.2778 226.6373 76.3812 224.5266 C 75.2034 221.7532 74.2751 219.439 73.9834 215.8642 C 73.4295 209.086 74.1838 204.3899 77.0148 198.5647 C 77.2353 198.1094 77.3002 198.138 77.54 197.771 C 77.9411 197.1575 77.9706 196.662 78.4409 195.9554 L 80.5958 192.7086 C 81.0553 192.0824 81.6304 191.9752 81.7852 191.0237 C 79.9622 191.0543 77.7861 191.3536 76.0694 191.5095 C 67.9618 192.246 56.967 191.202 49.5119 188.2967 C 48.8307 188.0303 48.0084 187.8276 47.2825 187.4543 C 45.1329 186.3496 44.0337 186.1044 41.3385 184.5054 C 36.0057 181.3414 32.1644 177.8165 29.1362 172.5568 C 28.385 171.2506 27.7812 169.8934 27.2285 168.4123 C 26.6576 166.881 26.4623 165.2715 26.1238 163.6109 C 24.8335 157.2795 26.4538 151.6569 28.9877 146.183 C 30.2992 143.352 31.5258 141.9568 31.7761 141.4304 C 32.523 139.858 33.8304 138.4328 34.8426 137.0387 L 41.6483 130.3645 C 43.8914 128.2139 46.7563 126.3345 49.4683 124.71 L 51.3655 123.5662 C 53.6204 122.2177 57.0997 120.4064 59.4658 119.5121 C 60.3315 119.1841 60.8006 118.9783 61.6578 118.6736 C 66.9155 116.803 72.294 114.8879 77.9114 114.0676 C 79.0296 113.9051 82.302 113.5701 83.0075 113.2931 " fill="#175ba0" fill-rule="evenodd"/>
<path transform="matrix(1,0,0,-1,0,269.2913)" d="M 216.6151 174.2734 C 217.4448 176.3629 216.2098 178.2814 215.0861 178.9911 C 213.3978 180.0575 211.7055 179.5578 209.7213 179.2732 L 175.7109 174.4115 C 164.662 172.8349 152.5912 171.2792 141.6348 169.5549 C 137.7564 168.9449 133.386 169.2377 132.1753 166.0714 C 131.4028 164.0523 132.4851 162.258 133.5665 161.4739 C 135.1536 160.3205 136.9352 160.7737 139.0351 161.0867 C 163.5755 164.7408 188.3089 168.1055 212.8748 171.6262 C 214.7922 171.9011 215.9974 172.7181 216.6151 174.2734 Z M 223.8208 116.6788 C 224.4161 118.5877 223.2456 120.295 222.1262 121.026 C 220.5431 122.0584 218.6354 121.5196 216.7603 121.2477 L 184.2959 116.3191 C 177.0999 115.257 169.7998 114.0092 162.6809 113.0267 C 159.031 112.5227 155.4795 111.9847 151.8177 111.3809 C 148.3546 110.81 144.0201 111.0574 143.1329 107.6312 C 142.5983 105.5642 143.744 103.9385 144.8762 103.233 C 146.3386 102.3205 148.4946 102.7278 150.2855 103.0346 C 153.9125 103.6576 157.4904 104.1253 161.0555 104.6993 C 168.2654 105.8601 175.4563 106.8851 182.6779 107.9878 C 189.8963 109.0902 197.0989 110.2901 204.3247 111.278 C 207.9026 111.7672 211.6069 112.3189 215.1295 112.9173 C 218.9302 113.5636 222.7394 113.2123 223.8208 116.6788 Z M 205.3845 143.6236 C 206.346 146.1679 204.3502 148.5014 202.2545 148.807 C 200.2714 149.0956 162.1037 142.9923 155.7819 142.1306 C 152.8832 141.736 150.8862 141.4962 149.9471 139.2075 C 148.8532 136.5409 150.9202 134.1176 153.1018 133.8449 C 154.5724 133.6612 159.3981 134.5674 161.0555 134.8251 L 199.6251 140.5434 C 202.5539 140.974 204.4298 141.1004 205.3845 143.6236 " fill="#5e8ac7" fill-rule="evenodd"/>
</g>
</svg>
