<?xml version="1.0" standalone="no"?>
<!DOCTYPE svg PUBLIC "-//W3C//DTD SVG 20010904//EN"
 "http://www.w3.org/TR/2001/REC-SVG-20010904/DTD/svg10.dtd">
<svg version="1.0" xmlns="http://www.w3.org/2000/svg"
 width="700.000000pt" height="700.000000pt" viewBox="0 0 700.000000 700.000000"
 preserveAspectRatio="xMidYMid meet">
<metadata>
Created by potrace 1.14, written by Peter Selinger 2001-2017
</metadata>
<g transform="translate(0.000000,700.000000) scale(0.100000,-0.100000)"
fill="#000000" stroke="none">
<path d="M2579 6286 c-2 -3 -29 -7 -59 -10 -190 -21 -464 -137 -607 -258 -157
-133 -278 -328 -309 -498 -14 -80 -11 -227 7 -313 20 -99 84 -240 149 -327 22
-29 40 -55 40 -57 0 -2 -21 -1 -47 3 -104 12 -371 11 -473 -2 -420 -55 -746
-255 -876 -539 -38 -82 -63 -217 -59 -315 6 -168 84 -357 216 -525 43 -55 209
-217 269 -263 36 -27 174 -113 250 -155 161 -88 491 -194 665 -212 91 -10 95
-17 35 -54 -168 -103 -274 -316 -237 -476 5 -22 11 -50 13 -63 23 -117 139
-280 271 -378 21 -16 44 -35 52 -42 67 -64 323 -184 493 -231 327 -92 724 -85
979 16 167 65 312 195 359 320 51 137 26 293 -47 293 -27 0 -37 -20 -47 -90
-12 -91 -19 -116 -44 -169 -30 -60 -109 -137 -197 -190 -60 -36 -194 -88 -253
-97 -19 -3 -44 -8 -56 -11 -35 -10 -352 -12 -393 -3 -21 5 -51 11 -68 13 -46
7 -256 66 -295 84 -102 45 -203 98 -271 142 -132 87 -272 255 -299 358 -36
142 -9 254 84 346 68 66 118 97 233 142 123 49 143 64 143 105 0 49 -40 64
-225 85 -128 14 -137 16 -269 44 -151 33 -378 117 -485 180 -28 17 -56 31 -61
31 -6 0 -10 5 -10 10 0 6 -4 10 -9 10 -12 0 -90 52 -165 110 -225 173 -385
415 -411 620 -19 147 -4 221 69 349 62 108 88 139 166 200 110 87 334 172 490
186 36 4 71 8 79 11 18 6 202 5 291 -1 36 -2 124 -16 195 -31 145 -30 185 -27
227 12 47 46 38 72 -83 230 -126 166 -180 309 -181 479 -1 263 160 512 417
642 157 80 295 111 488 111 107 -1 145 -5 235 -29 137 -36 232 -75 329 -135
112 -69 237 -198 309 -320 10 -17 14 -17 105 0 136 25 132 24 124 54 -11 46
-94 157 -184 248 -157 158 -284 232 -541 312 -99 32 -231 49 -371 50 -81 1
-148 0 -150 -2z"/>
<path d="M5245 5454 c-44 -7 -102 -16 -130 -19 -50 -6 -89 -12 -135 -20 -14
-2 -54 -7 -90 -11 -36 -3 -72 -8 -81 -9 -9 -2 -40 -6 -70 -10 -30 -3 -65 -8
-79 -10 -25 -4 -68 -10 -145 -19 -22 -3 -92 -12 -155 -21 -63 -8 -131 -17
-150 -19 -163 -20 -219 -27 -245 -31 -16 -2 -68 -9 -115 -15 -47 -6 -101 -12
-120 -15 -54 -7 -116 -14 -167 -21 -27 -3 -59 -7 -73 -9 -14 -2 -47 -7 -75
-10 -27 -4 -61 -8 -75 -10 -14 -2 -50 -6 -80 -10 -30 -3 -66 -8 -80 -10 -23
-4 -53 -8 -150 -20 -19 -2 -91 -11 -160 -20 -69 -9 -143 -18 -165 -21 -22 -3
-53 -8 -68 -10 -177 -23 -193 -37 -183 -162 3 -42 8 -86 10 -97 4 -23 16 -98
21 -135 2 -14 6 -43 10 -65 3 -22 7 -53 9 -70 2 -16 11 -79 20 -140 21 -138
27 -185 31 -210 3 -23 15 -109 21 -145 4 -29 6 -44 34 -240 28 -196 30 -211
34 -240 2 -14 7 -47 11 -73 4 -27 8 -56 9 -65 2 -10 7 -44 11 -77 4 -32 8 -66
10 -75 2 -8 8 -51 15 -95 6 -44 13 -91 15 -105 4 -23 24 -161 30 -205 3 -24
25 -170 30 -205 5 -32 47 -329 75 -525 11 -82 23 -161 25 -175 3 -14 9 -61 15
-105 13 -92 19 -117 28 -111 4 2 32 7 62 10 70 8 111 16 122 22 8 5 4 73 -8
144 -2 14 -11 75 -19 137 -9 62 -18 123 -20 135 -3 13 -7 43 -10 68 -3 25 -7
52 -10 60 -2 8 -7 42 -10 75 -4 32 -8 62 -10 65 -1 3 -6 32 -9 65 -4 33 -9 67
-11 75 -2 8 -7 42 -10 75 -4 32 -8 62 -10 65 -1 3 -6 32 -9 65 -4 33 -9 67
-11 75 -2 8 -7 38 -10 65 -3 28 -14 109 -25 180 -11 72 -22 150 -25 175 -3 25
-8 57 -11 73 -4 26 -6 38 -18 122 -4 22 -9 58 -12 80 -3 22 -7 54 -10 70 -2
17 -7 50 -9 75 -3 25 -8 52 -10 60 -2 8 -7 40 -10 70 -3 30 -8 62 -10 70 -3 8
-7 40 -10 70 -3 30 -7 62 -10 70 -2 8 -7 39 -10 69 -4 30 -8 62 -10 72 -3 16
-26 176 -41 279 -2 19 -7 49 -9 65 -3 17 -7 46 -9 65 -3 19 -7 55 -11 80 -4
25 -8 54 -10 65 -2 11 -6 36 -10 56 -8 43 -4 46 61 54 27 3 112 14 189 25 77
10 165 21 195 25 30 3 66 7 80 10 14 2 115 16 225 30 110 14 252 32 315 40 63
8 131 17 150 20 19 2 54 7 77 10 67 9 104 14 158 20 28 3 61 8 75 10 14 2 81
11 150 20 142 18 194 25 230 30 14 2 50 6 80 10 30 3 66 8 80 10 14 2 50 7 80
10 30 4 66 8 80 10 14 2 50 6 80 10 30 4 66 8 80 10 36 5 97 13 156 20 l52 6
11 -48 c11 -50 26 -141 35 -208 17 -139 45 -294 57 -327 6 -14 25 -33 41 -41
35 -17 82 -15 208 7 14 3 43 7 64 11 21 3 48 7 60 10 12 2 37 7 56 10 19 2 46
7 60 10 25 5 63 12 112 19 30 5 27 12 48 -154 6 -47 13 -96 15 -110 4 -27 23
-168 31 -235 3 -22 7 -51 10 -65 2 -14 9 -63 14 -110 6 -47 13 -98 15 -115 3
-16 12 -84 20 -150 9 -66 18 -132 21 -146 2 -15 6 -47 9 -70 3 -24 7 -55 10
-69 3 -14 7 -50 10 -80 3 -30 8 -62 10 -70 2 -8 7 -44 10 -80 3 -36 8 -72 10
-80 2 -8 6 -33 9 -55 15 -119 28 -213 31 -240 3 -16 11 -79 19 -140 9 -60 17
-126 20 -145 5 -37 22 -157 31 -225 3 -22 10 -74 15 -115 6 -41 15 -113 20
-160 6 -46 13 -93 15 -105 2 -11 7 -42 10 -70 7 -55 12 -95 20 -152 3 -21 10
-72 15 -113 6 -41 13 -97 17 -125 13 -94 12 -98 -27 -106 -19 -4 -53 -9 -75
-12 -22 -3 -98 -15 -170 -26 -71 -11 -152 -23 -180 -26 -27 -4 -57 -8 -65 -10
-16 -3 -73 -11 -132 -20 -39 -5 -95 -13 -138 -20 -35 -6 -238 -35 -280 -41
-19 -3 -46 -7 -60 -9 -14 -2 -45 -7 -70 -10 -25 -3 -52 -8 -60 -10 -8 -2 -38
-7 -66 -10 -28 -3 -59 -7 -70 -9 -18 -3 -78 -13 -134 -21 -14 -2 -47 -7 -75
-11 -27 -3 -58 -8 -67 -9 -9 -2 -68 -11 -130 -20 -62 -9 -124 -18 -138 -20
-14 -3 -59 -9 -101 -15 -41 -6 -86 -13 -100 -15 -13 -3 -44 -7 -69 -10 -25 -3
-56 -7 -70 -10 -51 -10 -86 -15 -140 -20 -30 -4 -62 -8 -70 -10 -8 -3 -35 -7
-60 -10 -25 -3 -56 -7 -70 -10 -14 -3 -45 -7 -70 -11 -25 -3 -70 -9 -100 -14
-30 -6 -73 -12 -95 -15 -22 -2 -51 -7 -65 -9 -14 -3 -45 -8 -70 -11 -97 -13
-116 -16 -142 -21 -17 -3 -28 -1 -28 5 0 9 -15 115 -45 321 -1 8 -5 41 -10 73
-7 56 -8 58 -34 53 -27 -6 -54 -10 -134 -22 l-48 -6 6 -52 c3 -28 10 -76 15
-106 12 -72 16 -99 30 -195 30 -212 37 -239 68 -270 26 -27 30 -27 107 -21 44
3 91 8 105 10 31 6 80 13 145 22 28 3 59 8 70 10 11 2 40 6 65 10 25 3 70 9
100 14 30 5 75 12 100 15 25 3 70 10 100 15 30 5 73 11 95 15 22 3 51 7 65 10
29 5 75 11 145 20 28 4 57 8 65 10 12 4 194 31 340 51 19 3 78 11 130 19 52 8
118 17 145 20 28 4 61 8 75 11 33 6 204 31 260 39 25 3 88 12 140 20 138 20
157 23 245 35 44 6 103 15 130 20 28 5 68 11 90 14 22 3 83 12 135 20 52 9
118 18 145 21 28 3 57 8 65 10 8 2 38 7 65 10 28 4 57 8 65 10 8 2 35 7 60 10
25 3 72 10 105 16 33 6 71 12 85 14 65 11 81 19 105 47 25 30 26 35 20 116 -7
94 -11 130 -19 170 -3 15 -8 52 -11 82 -3 30 -8 62 -10 70 -2 8 -7 38 -10 65
-3 28 -7 59 -9 70 -2 11 -7 47 -11 80 -4 32 -8 66 -10 75 -1 8 -6 40 -9 71 -4
31 -8 65 -10 75 -2 11 -7 46 -11 79 -4 32 -8 66 -10 75 -1 8 -6 42 -10 75 -3
32 -8 62 -10 65 -2 3 -6 36 -10 75 -3 38 -8 72 -10 75 -1 3 -6 32 -9 65 -3 33
-8 69 -10 80 -2 11 -7 47 -11 80 -3 32 -8 62 -10 65 -1 3 -6 34 -9 69 -4 36
-9 79 -11 95 -16 116 -27 195 -30 216 -2 14 -7 48 -10 75 -3 28 -8 61 -10 75
-2 14 -7 43 -9 65 -11 85 -37 281 -41 306 -3 14 -7 43 -9 65 -9 74 -18 139
-22 158 -2 10 -6 44 -9 75 -4 31 -11 83 -16 116 -4 33 -11 80 -14 105 -11 84
-13 105 -29 215 -8 61 -18 138 -21 172 -4 34 -8 70 -10 80 -2 10 -6 44 -10 75
-13 102 18 73 -500 452 -259 189 -260 190 -315 192 -30 1 -91 -5 -135 -12z
m453 -443 c106 -77 167 -128 160 -132 -7 -3 -31 -9 -53 -12 -22 -4 -58 -9 -80
-12 -22 -4 -51 -8 -64 -10 -112 -19 -109 -19 -115 12 -3 15 -8 42 -10 58 -6
40 -18 116 -21 135 -17 95 -17 102 -4 94 8 -4 92 -64 187 -133z"/>
<path d="M5178 4525 c-3 -2 -35 -8 -123 -20 -11 -2 -44 -6 -74 -10 -30 -4 -62
-8 -72 -10 -9 -2 -39 -6 -66 -10 -26 -4 -59 -8 -72 -11 -13 -2 -45 -6 -70 -10
-25 -3 -57 -7 -71 -9 -46 -7 -455 -66 -480 -70 -14 -2 -47 -6 -75 -10 -27 -3
-63 -8 -80 -10 -16 -3 -95 -14 -175 -25 -80 -12 -163 -23 -185 -26 -22 -3 -80
-12 -130 -20 -49 -8 -141 -21 -204 -29 -120 -16 -169 -36 -188 -77 -20 -45 4
-111 48 -134 30 -15 41 -14 249 16 80 12 159 23 175 26 27 3 143 20 205 29 14
2 45 6 70 10 25 3 56 8 70 10 14 2 45 7 70 10 25 3 54 7 65 9 11 2 43 7 70 10
28 4 93 13 145 21 52 8 113 16 135 19 22 3 105 15 185 26 80 11 163 23 185 25
22 3 51 8 65 10 14 3 45 7 70 10 25 3 56 7 70 10 14 3 45 7 70 10 101 12 174
27 200 40 58 30 64 127 10 166 -22 16 -83 32 -92 24z"/>
<path d="M4908 3725 c-1 -2 -28 -6 -58 -9 -30 -3 -64 -8 -76 -10 -12 -2 -45
-7 -75 -11 -30 -3 -61 -8 -69 -10 -8 -2 -37 -6 -65 -10 -27 -3 -61 -7 -75 -10
-14 -2 -41 -6 -60 -9 -54 -8 -252 -37 -280 -41 -14 -2 -70 -11 -125 -20 -55
-9 -115 -18 -132 -20 -18 -3 -50 -8 -70 -11 -21 -3 -51 -7 -68 -9 -79 -11
-112 -19 -138 -32 -32 -16 -60 -72 -51 -100 27 -83 72 -101 199 -79 17 3 48 8
70 11 22 4 69 11 105 16 36 6 78 12 93 14 44 6 110 16 137 20 31 5 213 32 260
39 19 3 69 10 110 16 41 6 89 13 105 16 17 2 44 6 60 8 17 3 53 8 80 12 49 6
61 8 120 19 55 11 81 26 98 54 38 65 8 128 -75 154 -9 3 -18 4 -20 2z"/>
<path d="M5315 3009 c-27 -5 -70 -11 -95 -14 -25 -4 -52 -8 -60 -10 -19 -5
-61 -12 -125 -20 -27 -3 -57 -8 -65 -10 -8 -2 -37 -6 -65 -10 -54 -7 -173 -25
-360 -55 -66 -10 -142 -22 -170 -26 -27 -3 -59 -8 -70 -10 -10 -2 -37 -6 -60
-9 -22 -3 -51 -8 -65 -10 -48 -9 -185 -30 -260 -40 -25 -3 -90 -13 -145 -21
-16 -3 -55 -9 -85 -14 -30 -5 -80 -12 -110 -15 -88 -10 -131 -25 -162 -55 -32
-32 -36 -66 -13 -110 26 -50 74 -65 160 -49 25 5 67 11 93 14 26 4 54 8 62 10
8 2 38 7 65 10 28 3 73 10 100 15 28 5 70 12 95 15 51 7 105 15 129 20 9 1 41
6 71 10 30 4 64 9 75 11 10 2 37 6 60 9 22 3 65 10 95 15 53 9 88 14 168 25
20 3 48 8 62 10 14 3 43 7 65 11 22 3 81 12 130 19 50 8 110 17 135 20 25 3
88 13 140 21 52 8 106 16 120 19 14 2 50 6 80 10 151 18 214 76 174 160 -26
56 -71 70 -169 54z"/>
</g>
</svg>
